<svg xmlns="http://www.w3.org/2000/svg" xmlns:xlink="http://www.w3.org/1999/xlink" version="1.1" width="472.441" height="185.695" viewBox="0 0 472.441 185.695">
<defs>
<clipPath id="clip_0">
<path transform="matrix(1,0,0,-1,0,185.695)" d="M0 185.695H472.441V0H0Z"/>
</clipPath>
</defs>
<g>
<g id="layer_1" data-name="Layer 1">
<g clip-path="url(#clip_0)">
<path transform="matrix(1,0,0,-1,71.9315,54.652605)" d="M0 0V-87.551H49.875C49.875-81.384 49.887-75.434 49.855-69.484 49.854-68.968 49.715-68.337 49.4-67.956 45.642-63.393 43.018-58.222 40.555-52.862 37.663-46.57 35.886-40.051 35.129-33.256 33.491-18.556 36.414-4.696 43.64 8.175 50.148 19.771 59.17 28.956 70.963 35.249 74.34 37.051 77.876 38.553 81.879 40.447H-59.471V0ZM387.362-87.547C387.462-87.365 387.562-87.184 387.663-87.002 365.697-65.808 343.732-44.613 321.655-23.312 343.859-1.887 365.794 19.278 388.049 40.753 387.13 40.86 386.895 40.912 386.658 40.912 365.844 40.917 345.028 40.938 324.214 40.859 323.183 40.855 321.944 40.215 321.156 39.487 308.669 27.953 296.246 16.35 283.793 4.778 281.005 2.188 278.547-1.329 275.234-2.623 271.917-3.919 267.722-2.979 263.911-2.998 260.521-3.014 257.131-3.001 253.416-3.001V40.761H209.62C235.063 25.784 249.289 4.189 247.812-25.38 246.339-54.865 229.852-74.724 203.666-87.323H253.493V-43.623H256.29C261.852-43.623 267.414-43.69 272.974-43.585 274.792-43.551 276.086-44.151 277.389-45.371 291.827-58.89 306.322-72.348 320.766-85.86 321.998-87.014 323.217-87.591 324.964-87.586 345.063-87.525 365.164-87.547 385.264-87.547Z" fill="#0b4d1c"/>
<path transform="matrix(1,0,0,-1,459.2938,142.19951)" d="M0 0H-2.099C-22.198 0-42.299 .021-62.398-.039-64.146-.044-65.364 .533-66.597 1.687-81.04 15.199-95.535 28.657-109.974 42.176-111.276 43.396-112.57 43.996-114.389 43.962-119.948 43.856-125.511 43.924-131.072 43.924H-133.869V.224H-183.696C-157.511 12.823-141.023 32.682-139.551 62.167-138.073 91.736-152.299 113.331-177.742 128.308H-133.946V84.546C-130.231 84.546-126.841 84.533-123.451 84.549-119.641 84.567-115.445 83.628-112.128 84.924-108.815 86.218-106.357 89.734-103.569 92.325-91.116 103.896-78.693 115.5-66.206 127.034-65.418 127.762-64.18 128.402-63.148 128.406-42.334 128.484-21.519 128.464-.704 128.459-.468 128.459-.232 128.407 .687 128.3-21.568 106.825-43.503 85.66-65.707 64.235-43.63 42.934-21.665 21.739 .301 .545 .2 .363 .1 .182 0 0" fill="#0b4d1c"/>
<path transform="matrix(1,0,0,-1,268.8358,127.2796)" d="M0 0C.159 .055 .324 .092 .479 .157 2.797 1.117 5.095 2.052 7.259 3.285 36.515 19.949 40.406 61.008 14.82 82.878 4.074 92.063-6.747 101.162-17.53 110.305-18.121 110.806-18.682 111.343-19.475 112.062-15.658 112.944-12.375 111.652-9.086 110.881 5.556 107.443 17.245 99.374 26.522 87.698 30.887 82.205 34.198 76.161 36.479 69.439 38.692 62.912 40.29 56.245 40.208 49.471 40.133 43.274 39.132 36.987 37.713 30.934 35.214 20.277 29.474 11.353 21.817 3.523 15.62-2.814 8.525-7.797 .428-11.173-11.898-16.312-24.686-17.322-37.795-14.478-43.896-13.153-49.787-11.232-55.057-7.971-57.954-6.178-60.271-3.413-62.754-.989-67.013 3.165-71.186 7.406-75.415 11.59-83.48 19.567-91.59 27.501-99.625 35.509-105.242 41.107-106.684 47.947-104.619 55.387-103.019 61.155-96.456 67.03-88.968 67.418-82.326 67.762-76.829 65.68-72.474 60.216-67.935 54.521-62.899 49.241-57.801 44.039-52.627 38.761-47.85 33.054-42.57 27.864-38.151 23.52-32.639 21.51-26.499 21.111-18.542 20.596-11.318 22.431-5.494 28.117 .912 34.375 4.008 41.876 3.087 51.038 2.347 58.405-.947 64.136-6.189 69.193-18.984 81.539-31.59 94.079-44.265 106.549-44.878 107.152-45.416 107.832-46.347 108.879-43.518 109.61-41.081 110.448-38.573 110.844-33.892 111.583-29.178 112.151-24.458 112.588-23.417 112.685-22.07 112.209-21.246 111.532-9.706 102.057 2.112 92.882 13.174 82.872 28.319 69.166 34.244 51.911 28.442 32.027 24.316 17.887 15.164 7.249 1.354 1.141 1.024 .994 .701 .912 .366 .794 .087 .695-.152 .594-.429 .525-1.026 .377-1.521 .2-2.131 .098-5.963-.548-9.815-1.62-13.674-1.949-30.855-3.418-45.172 2.629-56.607 15.332-65.585 25.306-74.221 35.585-83.033 45.708-84.1 46.934-84.916 47.88-83.987 49.786-83.084 51.641-83.931 53.555-85.767 54.714-87.592 55.866-89.454 55.705-91.04 54.278-92.531 52.937-92.999 51.199-92.138 49.303-91.252 47.351-89.59 46.188-87.556 46.731-85.723 47.221-84.969 46.378-84.013 45.247-75.765 35.479-67.635 25.604-59.188 16.009-47.147 2.332-31.871-4.146-13.663-2.908-9.111-2.599-4.288-1.465 0 0" fill="#0b4d1c"/>
<path transform="matrix(1,0,0,-1,186.2528,143.3313)" d="M0 0C-21.001-.583-37.952 6.771-51.402 21.807-55.268 26.127-58.588 31.152-61.192 36.34-67.411 48.729-69.197 61.883-66.639 75.635-63.434 92.858-54.558 106.535-40.561 116.69-35.508 120.355-29.563 123.089-23.654 125.221-9.488 130.33 4.822 129.488 19 124.774 25.278 122.688 30.064 118.525 34.684 113.989 43.354 105.476 52.181 97.122 60.943 88.704 64.712 85.084 68.593 81.573 72.229 77.825 77.257 72.639 79.653 66.309 77.507 59.306 74.874 50.718 67.871 45.407 58.224 45.95 53.544 46.213 49.721 48.328 46.56 51.682 40.518 58.092 34.546 64.567 28.486 70.959 24.282 75.394 20.038 79.792 15.71 84.104 3.897 95.873-16.772 93.85-25.908 79.927-33.271 68.708-32.231 54.154-22.321 44.587-10.73 33.397 .978 22.33 12.575 11.146 14.823 8.979 16.795 6.522 19.024 4.055 18.329 3.786 17.505 3.371 16.632 3.147 12.641 2.13 8.664 1.016 4.621 .27 3.327 .031 1.439 .367 .508 1.203-13.681 13.932-27.881 26.652-41.806 39.667-49.374 46.741-54.409 55.626-55.61 65.964-57.5 82.229-51.037 95.344-38.41 105.335-23.373 117.233-1.37 117.306 15.283 106.018 23.648 100.349 30.398 92.941 37.446 85.847 43.547 79.703 49.6 73.512 55.701 67.368 56.688 66.375 57.314 65.483 57.091 63.881 56.706 61.125 58.741 59.021 61.375 59.035 63.969 59.05 66.022 61.361 65.727 63.934 65.429 66.522 62.979 68.422 60.401 67.646 58.76 67.152 57.946 67.764 56.936 68.75 45.906 79.511 34.948 90.348 23.768 100.949 16.884 107.476 9.047 112.713-.465 114.48-32.076 120.354-53.529 99.583-56.938 74.901-58.951 60.33-52.937 48.105-42.315 38.302-29.068 26.074-15.558 14.132-2.164 2.063-1.593 1.548-1.05 1.002 0 0" fill="#0b4d1c"/>
<path transform="matrix(1,0,0,-1,71.9315,54.652605)" d="M0 0H-59.471V40.447H81.879C77.876 38.553 74.34 37.051 70.963 35.249 59.17 28.956 50.148 19.771 43.64 8.175 36.414-4.696 33.491-18.556 35.129-33.256 35.886-40.051 37.663-46.57 40.555-52.862 43.018-58.222 45.642-63.393 49.4-67.956 49.715-68.337 49.854-68.968 49.855-69.484 49.887-75.434 49.875-81.384 49.875-87.551H0Z" fill="#0b4d1c"/>
</g>
<text fill="#0b4d1c" xml:space="preserve" transform="matrix(1 0 -0 1 0 185.695)" font-size="32.3125" font-family="Aikabon" font-weight="bold"><tspan y="-10.5605" x="8.4346 29.760849 50.34391 74.675228 100.008228 123.273227 148.60623 173.03449 194.68386 216.17166 224.24979 247.19167 271.52299 295.75736 318.8931 340.1224 369.36524 392.08094 400.15907 419.80506 439.45106">TECHKNOTS ACADEMY LLP</tspan></text>
</g>
</g>
</svg>
